<?xml version="1.0" encoding="UTF-8"?>
<svg xmlns="http://www.w3.org/2000/svg" xmlns:xlink="http://www.w3.org/1999/xlink" width="250px" height="152px" viewBox="0 0 249 152" version="1.1">
<g id="surface1">
<path style=" stroke:none;fill-rule:evenodd;fill:rgb(96.470588%,57.254902%,10.588235%);fill-opacity:1;" d="M 116.792969 15.269531 C 116.84375 15.472656 117.035156 15.546875 118.078125 15.773438 C 120.027344 16.199219 124.519531 17.570312 126.457031 18.332031 C 127.820312 18.867188 130.261719 20.0625 131.375 20.742188 C 133.65625 22.132812 135.785156 24.023438 136.859375 25.617188 C 138.261719 27.695312 138.84375 29.65625 138.835938 32.25 C 138.820312 36.011719 137.574219 39.378906 134.507812 43.972656 C 131.878906 47.902344 129.175781 51.136719 125.488281 54.753906 C 121.789062 58.382812 118.414062 61.101562 113.710938 64.25 C 109.859375 66.824219 107.523438 68.164062 101.058594 71.496094 C 99.035156 72.535156 97.285156 73.457031 97.164062 73.539062 L 96.945312 73.6875 L 97.574219 74.746094 C 101.542969 81.390625 109.929688 86.703125 118.828125 88.199219 C 122.5625 88.828125 126.253906 88.714844 130.125 87.855469 C 131.65625 87.515625 134.503906 86.566406 135.992188 85.898438 C 139.769531 84.207031 143.464844 81.53125 146.105469 78.570312 C 150.007812 74.199219 152.308594 69.175781 153.171875 63.140625 C 153.367188 61.785156 153.335938 57.492188 153.125 56.179688 C 152.382812 51.613281 150.84375 47.753906 148.074219 43.527344 C 147.558594 42.738281 147.101562 42.09375 147.058594 42.09375 C 147.015625 42.09375 146.738281 42.703125 146.445312 43.449219 C 145.792969 45.101562 144.402344 47.9375 143.417969 49.628906 C 140.96875 53.835938 137.792969 57.972656 132.894531 63.335938 C 132.394531 63.886719 132 64.355469 132.023438 64.378906 C 132.078125 64.433594 134.570312 62.933594 135.890625 62.050781 C 138.308594 60.433594 139.632812 59.335938 142.757812 56.378906 C 144.019531 55.179688 145.101562 54.199219 145.15625 54.199219 C 145.3125 54.199219 145.796875 55.625 146.019531 56.734375 C 146.546875 59.34375 146.308594 62.152344 145.3125 65.144531 C 142.742188 72.84375 135.890625 79.324219 128.257812 81.277344 C 122.453125 82.757812 116.515625 81.839844 111.578125 78.691406 C 111.207031 78.457031 110.902344 78.199219 110.902344 78.121094 C 110.902344 77.945312 111.566406 77.371094 113.675781 75.71875 C 119.964844 70.792969 125.902344 65.039062 130.957031 58.984375 C 135.632812 53.378906 139.652344 47.496094 143.113281 41.183594 C 144.277344 39.058594 144.632812 38.65625 146.492188 37.355469 C 150.140625 34.796875 154.003906 33.285156 158.128906 32.800781 C 159.757812 32.609375 162.425781 32.609375 165.148438 32.800781 C 166.304688 32.882812 167.320312 32.949219 167.398438 32.949219 C 167.761719 32.953125 167.253906 32.742188 165.988281 32.355469 C 161.902344 31.121094 158.066406 30.441406 155.160156 30.441406 C 152.289062 30.441406 149.152344 31.058594 146.703125 32.109375 C 145.804688 32.496094 145.730469 32.472656 145.726562 31.832031 C 145.726562 31.253906 145.441406 29.898438 145.125 28.972656 C 144.507812 27.152344 143.589844 25.789062 141.855469 24.121094 C 136.339844 18.8125 128.878906 15.90625 118.878906 15.171875 C 116.828125 15.023438 116.730469 15.027344 116.792969 15.269531 M 148.902344 17.941406 C 147.589844 18.257812 146.089844 19.390625 145.539062 20.472656 C 144.832031 21.859375 144.859375 23.625 145.601562 24.914062 C 146.222656 25.988281 147.4375 26.960938 148.628906 27.335938 C 150.042969 27.785156 151.769531 27.550781 153.011719 26.742188 C 154.515625 25.761719 155.363281 24.292969 155.363281 22.667969 C 155.363281 19.503906 152.148438 17.152344 148.902344 17.941406 M 81.53125 96.949219 L 80.152344 99.660156 L 79.804688 99.597656 L 79.457031 99.53125 L 79.511719 100.199219 C 79.539062 100.566406 79.523438 100.890625 79.476562 100.921875 C 79.425781 100.953125 79.386719 100.820312 79.386719 100.628906 C 79.386719 100.296875 79.363281 100.277344 78.980469 100.210938 C 78.753906 100.171875 78.546875 100.167969 78.515625 100.199219 C 78.484375 100.230469 78.5 100.789062 78.554688 101.4375 C 78.609375 102.089844 78.613281 102.664062 78.566406 102.71875 C 78.519531 102.769531 78.484375 102.542969 78.480469 102.214844 C 78.480469 101.886719 78.449219 101.566406 78.40625 101.507812 C 78.367188 101.445312 78.136719 101.371094 77.894531 101.339844 L 77.453125 101.28125 L 77.511719 101.699219 C 77.542969 101.933594 77.621094 102.597656 77.6875 103.183594 L 77.804688 104.246094 L 75.8125 108.15625 C 74.714844 110.308594 73.800781 112.125 73.785156 112.195312 C 73.757812 112.292969 74.207031 112.316406 75.921875 112.292969 L 78.089844 112.265625 L 78.910156 110.480469 L 79.730469 108.699219 L 82.929688 108.722656 L 86.132812 108.75 L 87.78125 112.265625 L 90.058594 112.292969 C 91.308594 112.308594 92.332031 112.296875 92.332031 112.265625 C 92.332031 112.234375 91.609375 110.816406 90.726562 109.113281 C 89.574219 106.882812 89.121094 105.917969 89.125 105.675781 C 89.125 105.488281 89.238281 104.429688 89.375 103.324219 C 89.511719 102.222656 89.621094 101.304688 89.621094 101.289062 C 89.625 101.273438 89.5 101.289062 89.347656 101.320312 C 89.195312 101.351562 88.976562 101.398438 88.859375 101.421875 C 88.664062 101.460938 88.640625 101.570312 88.523438 102.996094 C 88.40625 104.480469 88.320312 105 88.320312 104.257812 C 88.320312 104.058594 88.390625 103.074219 88.476562 102.070312 C 88.566406 101.066406 88.613281 100.222656 88.585938 100.191406 C 88.558594 100.164062 88.355469 100.171875 88.136719 100.207031 C 87.691406 100.285156 87.625 100.4375 87.609375 101.40625 C 87.605469 101.6875 87.5625 102.121094 87.515625 102.371094 C 87.417969 102.859375 87.46875 101.246094 87.582031 100.136719 C 87.652344 99.445312 87.597656 99.425781 86.667969 99.808594 C 86.339844 99.945312 86.046875 100.015625 86.015625 99.964844 C 85.984375 99.914062 85.304688 98.605469 84.503906 97.054688 C 83.703125 95.503906 83.019531 94.234375 82.980469 94.234375 C 82.945312 94.234375 82.292969 95.457031 81.53125 96.949219 M 19.441406 94.433594 C 16.226562 95.015625 13.363281 97.523438 12.292969 100.6875 C 12.042969 101.417969 12.007812 101.703125 11.96875 103.074219 C 11.9375 104.222656 11.964844 104.820312 12.078125 105.347656 C 12.75 108.519531 15.480469 111.351562 18.769531 112.28125 C 19.757812 112.5625 22.644531 112.535156 24.085938 112.226562 C 25.367188 111.957031 26.964844 111.433594 27.792969 111.015625 L 28.40625 110.707031 L 28.378906 106.210938 L 28.351562 101.71875 L 20.824219 101.71875 L 20.207031 103.527344 C 19.863281 104.519531 19.582031 105.367188 19.578125 105.410156 C 19.574219 105.453125 20.5625 105.484375 21.777344 105.484375 L 23.988281 105.484375 L 23.988281 107.96875 L 23.609375 108.132812 C 22.285156 108.71875 20.230469 108.570312 18.738281 107.773438 C 16.390625 106.523438 15.558594 103.445312 16.886719 100.921875 C 18.289062 98.265625 21.875 97.566406 24.597656 99.417969 L 25.363281 99.933594 L 26.222656 98.867188 C 26.691406 98.28125 27.265625 97.566406 27.496094 97.277344 L 27.910156 96.753906 L 27.277344 96.28125 C 26.414062 95.640625 24.992188 94.980469 23.8125 94.671875 C 23.035156 94.46875 22.53125 94.40625 21.378906 94.378906 C 20.578125 94.359375 19.707031 94.382812 19.441406 94.433594 M 48.828125 94.5 C 46.871094 94.914062 44.6875 96.304688 43.46875 97.914062 C 42.796875 98.804688 42.105469 100.203125 41.835938 101.214844 C 41.535156 102.363281 41.535156 104.5 41.839844 105.636719 C 42.550781 108.296875 44.429688 110.511719 46.984375 111.707031 C 48.367188 112.355469 48.90625 112.464844 50.734375 112.464844 C 52.53125 112.46875 53.242188 112.324219 54.671875 111.664062 C 57.125 110.527344 59.097656 108.140625 59.71875 105.558594 C 59.992188 104.40625 59.992188 102.441406 59.710938 101.265625 C 58.910156 97.886719 55.863281 95.0625 52.347656 94.441406 C 51.507812 94.292969 49.660156 94.324219 48.828125 94.5 M 116.972656 94.484375 C 115.027344 94.914062 113.566406 95.996094 112.777344 97.597656 C 112.128906 98.914062 112.160156 100.890625 112.851562 102.257812 C 113.121094 102.792969 113.988281 103.636719 114.679688 104.042969 C 114.925781 104.1875 115.984375 104.636719 117.03125 105.042969 C 119.394531 105.957031 119.785156 106.210938 119.894531 106.90625 C 119.96875 107.351562 119.625 107.863281 119.027344 108.199219 C 118.636719 108.417969 118.460938 108.449219 117.675781 108.441406 C 116.902344 108.4375 116.65625 108.390625 115.945312 108.109375 C 115.488281 107.929688 114.621094 107.449219 114.011719 107.042969 L 112.90625 106.300781 L 112.929688 108.78125 L 112.957031 111.261719 L 113.636719 111.59375 C 114.011719 111.777344 114.753906 112.046875 115.292969 112.1875 C 116.132812 112.414062 116.488281 112.449219 117.824219 112.457031 C 119.59375 112.46875 120.203125 112.351562 121.417969 111.757812 C 122.242188 111.351562 123.320312 110.40625 123.703125 109.753906 C 124.164062 108.964844 124.363281 108.210938 124.417969 107.042969 C 124.507812 105.179688 124.109375 104.027344 123.046875 103.042969 C 122.320312 102.367188 121.632812 102.011719 119.75 101.324219 C 117.332031 100.4375 116.921875 100.167969 116.921875 99.441406 C 116.921875 98.59375 117.621094 98.105469 118.828125 98.109375 C 119.761719 98.109375 120.273438 98.328125 121.851562 99.402344 C 122.464844 99.820312 123.007812 100.160156 123.058594 100.160156 C 123.109375 100.160156 123.136719 99.140625 123.121094 97.789062 L 123.09375 95.414062 L 122.023438 95.03125 C 121.429688 94.820312 120.609375 94.574219 120.195312 94.492188 C 119.289062 94.304688 117.800781 94.300781 116.972656 94.484375 M 132.578125 94.480469 C 130.738281 94.867188 129.390625 95.617188 127.960938 97.046875 C 126.742188 98.269531 126.136719 99.210938 125.632812 100.664062 C 125.308594 101.605469 125.304688 101.644531 125.304688 103.425781 C 125.304688 105.214844 125.308594 105.246094 125.644531 106.214844 C 126.421875 108.472656 128.246094 110.546875 130.421875 111.640625 C 132.390625 112.628906 135.140625 112.800781 137.296875 112.066406 C 139.703125 111.246094 141.644531 109.519531 142.722656 107.242188 C 143.410156 105.792969 143.558594 105.113281 143.558594 103.425781 C 143.558594 102.382812 143.511719 101.839844 143.375 101.316406 C 142.828125 99.246094 141.589844 97.390625 139.917969 96.152344 C 139.136719 95.570312 137.644531 94.835938 136.746094 94.585938 C 135.921875 94.355469 133.460938 94.292969 132.578125 94.480469 M 203.007812 94.433594 C 199.769531 95.019531 196.886719 97.558594 195.84375 100.742188 C 195.570312 101.578125 195.558594 101.703125 195.558594 103.476562 C 195.558594 105.300781 195.5625 105.351562 195.871094 106.210938 C 196.390625 107.671875 196.9375 108.527344 198.117188 109.714844 C 200.039062 111.660156 202.011719 112.519531 204.566406 112.519531 C 205.726562 112.519531 206.484375 112.40625 207.449219 112.097656 C 210.40625 111.144531 212.78125 108.644531 213.582031 105.636719 C 213.886719 104.5 213.886719 102.363281 213.582031 101.214844 C 213.027344 99.121094 211.625 97.132812 209.871094 95.949219 C 209.085938 95.417969 207.808594 94.8125 207 94.585938 C 206.304688 94.390625 203.769531 94.292969 203.007812 94.433594 M 215.378906 103.210938 L 215.378906 112.085938 L 217.5 112.148438 C 218.667969 112.183594 219.660156 112.1875 219.707031 112.15625 C 219.753906 112.128906 219.792969 109.980469 219.792969 107.386719 L 219.792969 102.671875 L 225.339844 107.53125 C 228.390625 110.207031 230.917969 112.375 230.960938 112.351562 C 231 112.324219 231.035156 108.261719 231.035156 103.320312 L 231.035156 94.335938 L 226.621094 94.335938 L 226.59375 99.0625 L 226.570312 103.792969 L 221.058594 99.0625 C 218.027344 96.460938 215.507812 94.335938 215.460938 94.335938 C 215.414062 94.335938 215.378906 98.328125 215.378906 103.210938 M 237.285156 94.492188 C 235.96875 94.78125 234.898438 95.382812 234.027344 96.324219 C 233.011719 97.425781 232.554688 98.761719 232.683594 100.242188 C 232.894531 102.597656 233.910156 103.710938 236.875 104.832031 C 239.113281 105.679688 239.84375 106.042969 240.074219 106.421875 C 240.683594 107.421875 239.640625 108.5 238.0625 108.5 C 237.042969 108.5 235.34375 107.789062 234.003906 106.796875 C 233.546875 106.460938 233.402344 106.394531 233.332031 106.503906 C 233.285156 106.578125 233.246094 107.667969 233.246094 108.925781 L 233.242188 111.207031 L 233.484375 111.367188 C 233.867188 111.617188 235.128906 112.074219 236.003906 112.28125 C 236.601562 112.417969 237.191406 112.46875 238.3125 112.46875 C 239.605469 112.46875 239.921875 112.433594 240.570312 112.230469 C 242.8125 111.53125 244.144531 110.238281 244.644531 108.28125 C 244.882812 107.359375 244.796875 105.347656 244.488281 104.550781 C 244.210938 103.832031 243.296875 102.820312 242.492188 102.332031 C 242.179688 102.144531 241.15625 101.710938 240.21875 101.363281 C 238.15625 100.605469 237.859375 100.460938 237.519531 100.058594 C 237.121094 99.582031 237.160156 99.128906 237.636719 98.652344 C 238.316406 97.972656 239.40625 97.878906 240.542969 98.402344 C 240.863281 98.546875 241.621094 99 242.234375 99.414062 C 242.847656 99.824219 243.378906 100.160156 243.414062 100.160156 C 243.449219 100.160156 243.480469 99.085938 243.476562 97.773438 L 243.476562 95.390625 L 242.199219 94.964844 C 241.496094 94.734375 240.652344 94.496094 240.324219 94.4375 C 239.523438 94.296875 238.050781 94.324219 237.285156 94.492188 M 30.109375 103.425781 L 30.109375 112.21875 L 34.539062 112.191406 L 38.964844 112.167969 L 39.503906 110.308594 C 39.800781 109.285156 40.042969 108.414062 40.042969 108.375 C 40.042969 108.332031 38.78125 108.296875 37.234375 108.296875 L 34.425781 108.296875 L 34.425781 94.636719 L 30.109375 94.636719 L 30.109375 103.425781 M 93.941406 103.425781 L 93.941406 112.21875 L 98.371094 112.191406 L 102.800781 112.167969 L 103.335938 110.308594 C 103.628906 109.285156 103.871094 108.414062 103.871094 108.375 C 103.875 108.332031 102.609375 108.296875 101.066406 108.296875 L 98.253906 108.296875 L 98.253906 94.636719 L 93.941406 94.636719 L 93.941406 103.425781 M 144.921875 103.425781 L 144.921875 112.21875 L 149.359375 112.191406 L 153.796875 112.167969 L 154.273438 110.507812 C 154.535156 109.597656 154.777344 108.726562 154.8125 108.574219 L 154.875 108.296875 L 149.238281 108.296875 L 149.238281 94.636719 L 144.921875 94.636719 L 144.921875 103.425781 M 157.796875 101.140625 C 157.84375 108.203125 157.835938 108.148438 158.496094 109.484375 C 159.152344 110.820312 160.605469 111.871094 162.359375 112.285156 C 163.515625 112.554688 166.050781 112.53125 167.152344 112.234375 C 169.527344 111.597656 171.1875 110.109375 171.882812 107.996094 C 172.050781 107.492188 172.066406 106.902344 172.097656 101.089844 L 172.132812 94.734375 L 167.804688 94.734375 L 167.804688 99.632812 C 167.804688 102.328125 167.757812 104.929688 167.703125 105.417969 C 167.59375 106.390625 167.335938 107.226562 167.011719 107.683594 C 166.726562 108.085938 165.996094 108.402344 165.199219 108.46875 C 163.855469 108.582031 162.949219 108.117188 162.476562 107.074219 L 162.238281 106.539062 L 162.207031 100.636719 L 162.179688 94.734375 L 157.753906 94.734375 L 157.796875 101.140625 M 175.390625 95.265625 C 175.308594 95.554688 175.078125 96.378906 174.878906 97.097656 C 174.683594 97.816406 174.496094 98.480469 174.46875 98.578125 C 174.421875 98.742188 174.570312 98.753906 176.632812 98.753906 L 178.847656 98.753906 L 178.847656 112.316406 L 180.539062 112.316406 C 181.46875 112.316406 182.441406 112.347656 182.695312 112.382812 L 183.160156 112.445312 L 183.160156 98.753906 L 184.59375 98.753906 L 186.023438 98.75 L 186.625 96.886719 C 186.957031 95.859375 187.242188 94.953125 187.257812 94.875 C 187.285156 94.757812 186.402344 94.734375 181.414062 94.734375 L 175.539062 94.734375 L 175.390625 95.265625 M 189.886719 103.527344 L 189.886719 112.316406 L 194.300781 112.316406 L 194.300781 94.734375 L 189.886719 94.734375 L 189.886719 103.527344 M 61.222656 103.535156 L 61.222656 112.230469 L 65.160156 112.191406 C 69.417969 112.144531 69.609375 112.125 70.835938 111.546875 C 71.617188 111.175781 72.496094 110.3125 72.871094 109.550781 C 73.507812 108.257812 73.507812 106.53125 72.871094 105.238281 C 72.515625 104.515625 71.6875 103.628906 71.074219 103.320312 L 70.664062 103.109375 L 71.183594 102.765625 C 72.148438 102.128906 72.722656 101.105469 72.832031 99.839844 C 73.0625 97.203125 71.378906 95.484375 68.074219 94.988281 C 67.378906 94.882812 66.234375 94.835938 64.15625 94.835938 L 61.222656 94.835938 L 61.222656 103.535156 M 49.679688 98.507812 C 47.589844 99.089844 45.964844 101.246094 45.964844 103.433594 C 45.964844 105.589844 47.492188 107.660156 49.550781 108.296875 C 52.917969 109.339844 56.371094 105.78125 55.449219 102.226562 C 55.03125 100.621094 53.785156 99.242188 52.1875 98.609375 C 51.5625 98.363281 50.367188 98.316406 49.679688 98.507812 M 65.535156 100.0625 L 65.535156 101.796875 L 66.429688 101.746094 C 67.886719 101.664062 68.476562 101.183594 68.484375 100.066406 C 68.492188 98.925781 67.910156 98.449219 66.414062 98.371094 L 65.535156 98.328125 L 65.535156 100.0625 M 133.433594 98.492188 C 131.722656 98.910156 130.199219 100.484375 129.71875 102.335938 C 129.242188 104.175781 130.03125 106.253906 131.695312 107.511719 C 133.539062 108.910156 135.753906 108.792969 137.527344 107.199219 C 139.015625 105.859375 139.601562 103.703125 138.972656 101.886719 C 138.113281 99.417969 135.699219 97.9375 133.433594 98.492188 M 203.636719 98.492188 C 201.457031 99.089844 199.832031 101.195312 199.824219 103.429688 C 199.8125 106.074219 202.148438 108.5 204.699219 108.5 C 205.425781 108.5 206.414062 108.167969 207.136719 107.6875 C 208.585938 106.71875 209.453125 105.125 209.457031 103.417969 C 209.460938 100.339844 206.386719 97.734375 203.636719 98.492188 M 79.9375 100.335938 L 79.667969 100.8125 L 79.84375 103.503906 L 80.023438 106.191406 L 80.28125 106.25 C 81.34375 106.484375 81.945312 106.824219 82.875 107.730469 L 83.402344 108.242188 L 83.402344 106.125 C 83.402344 104.960938 83.355469 103.761719 83.300781 103.464844 C 83.152344 102.664062 82.578125 101.578125 82 100.996094 C 81.585938 100.582031 80.480469 99.859375 80.257812 99.859375 C 80.230469 99.859375 80.085938 100.074219 79.9375 100.335938 M 85.476562 100.617188 C 84.914062 101.046875 84.285156 101.910156 83.984375 102.660156 C 83.777344 103.179688 83.757812 103.421875 83.722656 105.730469 L 83.6875 108.238281 L 84.382812 107.578125 C 85.117188 106.886719 86.152344 106.289062 86.625 106.289062 C 86.777344 106.289062 86.9375 106.234375 86.984375 106.164062 C 87.027344 106.09375 87.113281 105.292969 87.175781 104.378906 L 87.292969 102.722656 L 86.703125 101.550781 C 86.382812 100.90625 86.078125 100.351562 86.027344 100.320312 C 85.976562 100.289062 85.726562 100.421875 85.476562 100.617188 M 79.039062 102.0625 L 78.757812 102.652344 L 78.921875 104.695312 C 79.015625 105.820312 79.085938 106.816406 79.085938 106.902344 C 79.085938 107.027344 79.226562 107.082031 79.664062 107.132812 C 80.457031 107.222656 81.4375 107.476562 82.097656 107.757812 L 82.648438 107.996094 L 82.195312 107.582031 C 81.632812 107.0625 80.664062 106.589844 80.160156 106.589844 C 79.949219 106.589844 79.761719 106.535156 79.738281 106.464844 C 79.714844 106.394531 79.621094 105.253906 79.53125 103.929688 C 79.441406 102.601562 79.355469 101.507812 79.34375 101.492188 C 79.332031 101.480469 79.195312 101.734375 79.039062 102.0625 M 78.207031 103.722656 C 78.082031 103.976562 77.980469 104.328125 77.980469 104.503906 C 77.980469 104.796875 78.222656 106.914062 78.335938 107.652344 L 78.386719 107.960938 L 79.511719 107.917969 C 80.132812 107.898438 80.914062 107.925781 81.242188 107.980469 C 81.574219 108.03125 81.863281 108.0625 81.878906 108.042969 C 81.964844 107.964844 80.496094 107.589844 79.683594 107.484375 C 78.921875 107.386719 78.785156 107.339844 78.785156 107.183594 C 78.785156 106.9375 78.484375 103.449219 78.453125 103.34375 C 78.441406 103.300781 78.328125 103.46875 78.207031 103.722656 M 87.585938 103.53125 C 87.558594 103.640625 87.5 104.316406 87.464844 105.035156 C 87.425781 105.753906 87.347656 106.394531 87.292969 106.464844 C 87.238281 106.535156 87.050781 106.589844 86.875 106.59375 C 86.460938 106.59375 85.585938 107.007812 84.929688 107.515625 C 84.328125 107.980469 84.304688 108.105469 84.875 107.8125 C 85.402344 107.542969 86.257812 107.304688 87.191406 107.160156 L 87.96875 107.042969 L 88.074219 105.738281 L 88.183594 104.429688 L 87.914062 103.882812 C 87.699219 103.449219 87.632812 103.375 87.585938 103.53125 M 88.359375 106.148438 L 88.269531 107.34375 L 87.71875 107.421875 C 86.875 107.542969 85.792969 107.792969 85.457031 107.945312 L 85.15625 108.082031 L 85.507812 108.015625 C 85.703125 107.976562 86.5 107.945312 87.28125 107.945312 L 88.707031 107.945312 L 88.761719 107.546875 C 88.957031 106.113281 88.953125 105.9375 88.695312 105.4375 L 88.449219 104.953125 L 88.359375 106.148438 M 65.535156 107.058594 L 65.535156 108.832031 L 66.515625 108.761719 C 67.054688 108.722656 67.667969 108.640625 67.878906 108.578125 C 68.742188 108.320312 69.171875 107.5 68.957031 106.53125 C 68.75 105.613281 68.097656 105.285156 66.472656 105.285156 L 65.535156 105.285156 L 65.535156 107.058594 M 158.132812 117.457031 C 157.519531 117.984375 157.964844 118.9375 158.765625 118.808594 C 159.191406 118.742188 159.476562 118.433594 159.476562 118.042969 C 159.476562 117.378906 158.644531 117.015625 158.132812 117.457031 M 128.4375 117.804688 C 128.292969 117.847656 128.261719 117.976562 128.261719 118.53125 L 128.261719 119.203125 L 127.535156 119.207031 C 126.988281 119.210938 126.703125 119.265625 126.386719 119.429688 C 124.871094 120.21875 124.882812 122.679688 126.40625 123.464844 C 127.375 123.964844 129.164062 123.726562 129.617188 123.035156 C 129.757812 122.816406 129.777344 122.472656 129.75 120.417969 C 129.726562 118.792969 129.683594 118.015625 129.601562 117.9375 C 129.476562 117.808594 128.71875 117.726562 128.4375 117.804688 M 72.960938 118.171875 C 72.078125 118.425781 71.660156 118.90625 71.660156 119.679688 C 71.660156 120.589844 71.964844 120.898438 73.355469 121.40625 C 74.316406 121.753906 74.507812 121.941406 74.222656 122.257812 C 73.96875 122.539062 73.214844 122.535156 72.554688 122.25 C 72.074219 122.042969 72.046875 122.042969 71.855469 122.214844 C 71.546875 122.496094 71.59375 122.996094 71.960938 123.300781 C 72.632812 123.871094 74.429688 123.886719 75.265625 123.335938 C 75.730469 123.027344 76.03125 122.351562 75.9375 121.839844 C 75.789062 121.058594 75.273438 120.652344 73.742188 120.105469 C 73.222656 119.921875 73.101562 119.644531 73.457031 119.453125 C 73.746094 119.300781 74.523438 119.328125 74.949219 119.503906 C 75.304688 119.65625 75.328125 119.652344 75.496094 119.445312 C 75.816406 119.046875 75.679688 118.558594 75.171875 118.292969 C 74.761719 118.082031 73.519531 118.015625 72.960938 118.171875 M 119.464844 118.246094 C 119.070312 118.40625 119.03125 118.640625 119.03125 120.9375 C 119.03125 123.816406 118.878906 123.609375 120.972656 123.652344 C 121.972656 123.671875 122.605469 123.644531 122.734375 123.574219 C 122.996094 123.433594 123.085938 123.085938 122.953125 122.738281 L 122.847656 122.464844 L 120.535156 122.464844 L 120.535156 121.464844 L 121.511719 121.4375 C 122.449219 121.410156 122.492188 121.398438 122.636719 121.140625 C 122.75 120.9375 122.761719 120.800781 122.6875 120.585938 C 122.589844 120.304688 122.585938 120.304688 121.5625 120.277344 L 120.535156 120.246094 L 120.535156 119.351562 L 121.546875 119.351562 C 122.746094 119.351562 122.945312 119.269531 122.945312 118.800781 C 122.945312 118.128906 122.984375 118.144531 121.253906 118.152344 C 120.390625 118.152344 119.582031 118.195312 119.464844 118.246094 M 78.484375 120.515625 C 78.484375 122.921875 78.550781 123.242188 79.105469 123.527344 C 79.527344 123.746094 80.300781 123.816406 80.734375 123.671875 C 81.140625 123.539062 81.347656 123.1875 81.246094 122.792969 C 81.199219 122.59375 81.125 122.5625 80.710938 122.5625 C 80.445312 122.5625 80.175781 122.511719 80.109375 122.445312 C 80.035156 122.371094 79.988281 122.015625 79.988281 121.539062 L 79.988281 120.757812 L 80.484375 120.757812 C 81.058594 120.757812 81.292969 120.582031 81.292969 120.15625 C 81.292969 119.613281 81.21875 119.550781 80.582031 119.550781 L 79.988281 119.550781 L 79.988281 119.171875 C 79.988281 118.535156 79.777344 118.34375 79.082031 118.34375 L 78.484375 118.34375 L 78.484375 120.515625 M 152.449219 120.515625 C 152.449219 122.921875 152.515625 123.242188 153.070312 123.527344 C 153.496094 123.746094 154.269531 123.816406 154.703125 123.671875 C 155.109375 123.539062 155.3125 123.1875 155.214844 122.792969 C 155.164062 122.59375 155.09375 122.5625 154.675781 122.5625 C 154.414062 122.5625 154.144531 122.511719 154.078125 122.445312 C 154.003906 122.371094 153.957031 122.015625 153.957031 121.539062 L 153.957031 120.757812 L 154.449219 120.757812 C 155.023438 120.757812 155.261719 120.582031 155.261719 120.15625 C 155.261719 119.613281 155.1875 119.550781 154.546875 119.550781 L 153.957031 119.550781 L 153.957031 119.171875 C 153.957031 118.535156 153.746094 118.34375 153.046875 118.34375 L 152.449219 118.34375 L 152.449219 120.515625 M 146.929688 119.113281 C 146.027344 119.285156 145.707031 119.628906 145.925781 120.195312 C 146.011719 120.425781 146.074219 120.464844 146.253906 120.410156 C 146.378906 120.371094 146.800781 120.316406 147.195312 120.285156 C 147.835938 120.234375 147.933594 120.25 148.125 120.445312 C 148.246094 120.566406 148.320312 120.703125 148.289062 120.75 C 148.261719 120.792969 147.976562 120.863281 147.660156 120.898438 C 146.078125 121.078125 145.625 121.375 145.625 122.246094 C 145.628906 123.269531 146.246094 123.714844 147.683594 123.71875 C 148.632812 123.71875 149.113281 123.59375 149.515625 123.234375 C 149.730469 123.042969 149.742188 122.957031 149.742188 121.667969 C 149.742188 120.023438 149.636719 119.722656 148.929688 119.371094 C 148.472656 119.144531 147.449219 119.011719 146.929688 119.113281 M 170.566406 119.195312 C 170.289062 119.273438 170.035156 119.34375 169.996094 119.34375 C 169.960938 119.347656 169.789062 119.464844 169.621094 119.609375 L 169.3125 119.871094 L 169.3125 121.605469 C 169.3125 122.878906 169.347656 123.371094 169.4375 123.449219 C 169.644531 123.617188 170.089844 123.695312 170.46875 123.625 L 170.816406 123.558594 L 170.816406 122.027344 C 170.816406 120.96875 170.855469 120.457031 170.9375 120.375 C 171.003906 120.308594 171.226562 120.253906 171.433594 120.253906 C 172.039062 120.253906 172.121094 120.464844 172.121094 122.027344 C 172.121094 123.289062 172.132812 123.363281 172.34375 123.511719 C 172.574219 123.675781 173.007812 123.710938 173.402344 123.605469 C 173.621094 123.546875 173.628906 123.511719 173.625 122.175781 C 173.621094 120.199219 173.460938 119.699219 172.703125 119.320312 C 172.210938 119.074219 171.1875 119.015625 170.566406 119.195312 M 85.019531 119.292969 C 83.90625 119.65625 83.347656 120.890625 83.707031 122.191406 C 83.84375 122.671875 84.316406 123.21875 84.847656 123.496094 C 85.175781 123.671875 85.425781 123.710938 86.109375 123.710938 C 87.308594 123.707031 87.941406 123.332031 87.761719 122.738281 C 87.632812 122.316406 87.542969 122.277344 87.085938 122.433594 C 86.53125 122.628906 85.585938 122.566406 85.3125 122.316406 C 85.199219 122.214844 85.109375 122.097656 85.109375 122.054688 C 85.109375 122.015625 85.65625 121.898438 86.324219 121.800781 C 87.777344 121.585938 87.960938 121.480469 87.933594 120.851562 C 87.914062 120.289062 87.539062 119.71875 87.015625 119.449219 C 86.488281 119.179688 85.582031 119.109375 85.019531 119.292969 M 91.597656 119.285156 C 91.332031 119.363281 90.992188 119.511719 90.84375 119.625 L 90.578125 119.824219 L 90.550781 122.375 C 90.523438 124.875 90.527344 124.929688 90.738281 125.101562 C 90.953125 125.277344 91.390625 125.324219 91.808594 125.214844 C 92.015625 125.15625 92.03125 125.09375 92.03125 124.414062 L 92.03125 123.671875 L 92.476562 123.734375 C 93.054688 123.8125 93.875 123.609375 94.25 123.292969 C 95.144531 122.539062 95.273438 120.765625 94.492188 119.925781 C 93.890625 119.285156 92.609375 119 91.597656 119.285156 M 109.363281 119.285156 C 109.09375 119.363281 108.757812 119.511719 108.609375 119.625 L 108.339844 119.824219 L 108.3125 122.375 C 108.285156 124.875 108.289062 124.929688 108.5 125.101562 C 108.71875 125.277344 109.15625 125.324219 109.570312 125.214844 C 109.78125 125.15625 109.796875 125.097656 109.796875 124.402344 L 109.796875 123.652344 L 110.195312 123.71875 C 110.75 123.8125 111.644531 123.605469 112.011719 123.296875 C 112.84375 122.597656 113.019531 121.027344 112.375 120.082031 C 111.878906 119.351562 110.460938 118.976562 109.363281 119.285156 M 141.003906 119.28125 C 140.335938 119.46875 139.914062 119.8125 139.644531 120.394531 C 139.1875 121.371094 139.390625 122.480469 140.140625 123.140625 C 141.339844 124.191406 143.816406 123.746094 143.074219 122.613281 C 142.9375 122.40625 142.878906 122.382812 142.660156 122.464844 C 142.152344 122.660156 141.636719 122.585938 141.289062 122.269531 C 140.996094 122.011719 140.960938 121.917969 140.960938 121.460938 C 140.960938 121 140.996094 120.90625 141.289062 120.648438 C 141.636719 120.332031 142.152344 120.261719 142.65625 120.453125 C 142.871094 120.53125 142.929688 120.515625 143.019531 120.347656 C 143.1875 120.035156 143.097656 119.640625 142.808594 119.429688 C 142.480469 119.183594 141.601562 119.113281 141.003906 119.28125 M 158.097656 119.214844 C 157.871094 119.261719 157.871094 119.273438 157.871094 121.222656 C 157.871094 122.351562 157.914062 123.261719 157.972656 123.371094 C 158.089844 123.59375 158.628906 123.71875 159.066406 123.621094 L 159.375 123.554688 L 159.375 121.515625 C 159.375 119.847656 159.347656 119.453125 159.230469 119.351562 C 159.066406 119.21875 158.441406 119.140625 158.097656 119.214844 M 163.414062 119.335938 C 162.75 119.566406 162.519531 119.773438 162.222656 120.40625 C 161.78125 121.347656 162.023438 122.6875 162.738281 123.25 C 163.058594 123.503906 163.886719 123.769531 164.34375 123.769531 C 164.796875 123.769531 165.628906 123.503906 165.9375 123.257812 C 166.855469 122.535156 166.925781 120.808594 166.074219 119.882812 C 165.425781 119.183594 164.449219 118.980469 163.414062 119.335938 M 101.183594 120.949219 C 101.21875 122.792969 101.257812 122.925781 101.875 123.386719 C 102.476562 123.839844 104.003906 123.851562 104.921875 123.414062 C 105.425781 123.175781 105.507812 122.8125 105.464844 121.042969 C 105.425781 119.289062 105.402344 119.25 104.566406 119.25 L 103.980469 119.25 L 103.925781 122.515625 L 103.488281 122.546875 C 102.742188 122.597656 102.671875 122.457031 102.671875 120.964844 C 102.671875 119.351562 102.617188 119.25 101.753906 119.25 L 101.152344 119.25 L 101.183594 120.949219 M 132.617188 119.390625 C 132.589844 119.46875 132.578125 120.234375 132.597656 121.089844 C 132.625 122.488281 132.652344 122.679688 132.839844 122.933594 C 133.46875 123.785156 135.09375 124.003906 136.347656 123.410156 C 136.828125 123.179688 136.921875 122.761719 136.878906 120.980469 C 136.839844 119.300781 136.808594 119.25 135.925781 119.25 L 135.394531 119.25 L 135.339844 122.515625 L 134.902344 122.546875 C 134.15625 122.597656 134.085938 122.457031 134.085938 120.964844 C 134.085938 119.375 134.023438 119.25 133.222656 119.25 C 132.84375 119.25 132.65625 119.292969 132.617188 119.390625 M 85.253906 120.5 C 84.910156 120.84375 84.925781 121.089844 85.285156 121.019531 C 85.433594 120.988281 85.773438 120.933594 86.035156 120.898438 C 86.546875 120.828125 86.628906 120.691406 86.328125 120.421875 C 86.054688 120.171875 85.542969 120.210938 85.253906 120.5 M 92.074219 120.488281 C 92.046875 120.5625 92.039062 121.046875 92.054688 121.566406 L 92.082031 122.515625 L 92.507812 122.546875 C 92.851562 122.570312 92.980469 122.527344 93.1875 122.324219 C 93.398438 122.109375 93.4375 121.980469 93.4375 121.460938 C 93.4375 120.945312 93.398438 120.808594 93.191406 120.601562 C 92.914062 120.324219 92.167969 120.246094 92.074219 120.488281 M 109.839844 120.488281 C 109.8125 120.5625 109.800781 121.046875 109.816406 121.566406 L 109.847656 122.515625 L 110.273438 122.546875 C 110.617188 122.570312 110.746094 122.527344 110.949219 122.324219 C 111.164062 122.109375 111.203125 121.980469 111.203125 121.460938 C 111.203125 120.945312 111.164062 120.808594 110.957031 120.601562 C 110.675781 120.324219 109.933594 120.246094 109.839844 120.488281 M 127.097656 120.589844 C 126.839844 120.8125 126.808594 120.902344 126.808594 121.441406 C 126.808594 122.199219 127.085938 122.566406 127.652344 122.5625 C 128.246094 122.558594 128.273438 122.507812 128.242188 121.402344 L 128.214844 120.40625 L 127.796875 120.375 C 127.472656 120.351562 127.320312 120.398438 127.097656 120.589844 M 163.785156 120.613281 C 163.585938 120.824219 163.542969 120.972656 163.542969 121.460938 C 163.542969 122.183594 163.824219 122.5625 164.355469 122.5625 C 164.84375 122.5625 165.097656 122.1875 165.097656 121.460938 C 165.097656 121.027344 165.042969 120.816406 164.890625 120.617188 C 164.609375 120.261719 164.117188 120.257812 163.785156 120.613281 M 147.734375 121.859375 C 147.191406 121.929688 147.03125 122.015625 147.03125 122.25 C 147.03125 122.523438 147.242188 122.664062 147.644531 122.664062 C 148.214844 122.664062 148.335938 122.585938 148.335938 122.207031 C 148.335938 121.800781 148.304688 121.785156 147.734375 121.859375 "/>
<path style=" stroke:none;fill-rule:evenodd;fill:rgb(19.607843%,52.54902%,75.686275%);fill-opacity:1;" d="M 119.128906 24.777344 C 118.152344 24.859375 116.089844 25.121094 116.003906 25.175781 C 115.957031 25.203125 115.984375 25.328125 116.070312 25.445312 C 116.152344 25.566406 116.21875 25.75 116.21875 25.855469 C 116.21875 26.042969 116.273438 26.046875 117.550781 25.960938 C 118.28125 25.910156 120.175781 25.871094 121.757812 25.871094 C 123.339844 25.871094 124.664062 25.839844 124.699219 25.804688 C 124.789062 25.710938 124.511719 25.09375 124.300781 24.914062 C 124.152344 24.792969 123.707031 24.761719 121.851562 24.75 C 120.601562 24.746094 119.378906 24.757812 119.128906 24.777344 M 126.515625 25.089844 C 126.488281 25.117188 126.550781 25.253906 126.660156 25.394531 C 126.769531 25.53125 126.859375 25.726562 126.859375 25.832031 C 126.859375 26.140625 127.242188 26.289062 128.875 26.613281 C 130.441406 26.921875 132.582031 27.496094 133.976562 27.972656 C 134.925781 28.300781 135.1875 28.304688 135.1875 28.003906 C 135.1875 27.722656 134.859375 27.171875 134.617188 27.042969 C 133.429688 26.414062 126.792969 24.8125 126.515625 25.089844 M 112.507812 25.875 C 110.605469 26.367188 108.003906 27.3125 106.589844 28.027344 C 106.015625 28.316406 105.988281 28.34375 106.109375 28.558594 C 106.175781 28.679688 106.238281 28.796875 106.246094 28.8125 C 106.25 28.828125 106.914062 28.59375 107.71875 28.289062 C 109.335938 27.683594 111.085938 27.140625 112.457031 26.824219 C 114.003906 26.464844 114.113281 26.425781 114.113281 26.238281 C 114.113281 25.984375 113.828125 25.617188 113.628906 25.621094 C 113.535156 25.625 113.03125 25.738281 112.507812 25.875 M 117.273438 26.3125 C 116.269531 26.441406 116.261719 26.445312 115.96875 27.328125 C 115.824219 27.765625 115.726562 28.164062 115.757812 28.210938 C 115.785156 28.261719 116.726562 28.332031 117.847656 28.371094 C 118.96875 28.410156 120.289062 28.484375 120.785156 28.535156 C 122.761719 28.738281 123.792969 28.769531 123.910156 28.621094 C 124.046875 28.441406 124.507812 27.265625 124.59375 26.867188 C 124.710938 26.320312 124.503906 26.285156 120.988281 26.261719 C 119.277344 26.25 117.605469 26.273438 117.273438 26.3125 M 112.207031 27.082031 C 110.269531 27.527344 108.011719 28.234375 106.671875 28.816406 C 106.269531 28.988281 106.1875 29.078125 106.046875 29.492188 C 105.957031 29.757812 105.90625 29.992188 105.933594 30.019531 C 105.960938 30.046875 106.582031 29.90625 107.3125 29.703125 C 108.882812 29.273438 110.152344 29.003906 111.921875 28.734375 C 112.632812 28.625 113.300781 28.488281 113.40625 28.433594 C 113.601562 28.328125 114.011719 27.371094 114.011719 27.019531 C 114.011719 26.753906 113.5625 26.765625 112.207031 27.082031 M 126.816406 26.949219 C 126.796875 27.019531 126.65625 27.4375 126.507812 27.878906 C 126.105469 29.066406 126.101562 29.09375 126.371094 29.265625 C 126.5 29.347656 127.289062 29.597656 128.125 29.824219 C 129.515625 30.199219 131.023438 30.6875 132.96875 31.390625 C 134.007812 31.765625 134.171875 31.726562 134.511719 31.023438 C 134.664062 30.707031 134.867188 30.148438 134.964844 29.78125 L 135.136719 29.117188 L 134.84375 28.878906 C 134.515625 28.617188 132.761719 28.007812 130.972656 27.535156 C 128.515625 26.882812 126.898438 26.65625 126.816406 26.949219 M 115.417969 29.042969 C 115.253906 29.101562 114.984375 29.441406 114.640625 30.011719 C 114.347656 30.496094 114.035156 31.015625 113.9375 31.167969 C 113.699219 31.546875 113.859375 31.777344 114.425781 31.871094 C 114.667969 31.910156 115.570312 32.058594 116.433594 32.199219 C 117.296875 32.339844 118.550781 32.589844 119.222656 32.753906 C 120.804688 33.140625 121.175781 33.140625 121.523438 32.765625 C 121.671875 32.609375 122.125 31.921875 122.53125 31.238281 C 123.503906 29.609375 123.476562 29.5625 121.339844 29.292969 C 118.632812 28.957031 115.960938 28.839844 115.417969 29.042969 M 110.648438 29.292969 C 108.394531 29.636719 106.222656 30.160156 105.75 30.46875 C 105.621094 30.554688 105.351562 30.902344 105.148438 31.238281 C 104.859375 31.722656 104.8125 31.867188 104.925781 31.910156 C 105.007812 31.941406 105.699219 31.894531 106.464844 31.804688 C 107.230469 31.71875 108.578125 31.644531 109.457031 31.644531 C 111.613281 31.644531 111.671875 31.625 112.285156 30.664062 C 112.90625 29.6875 113.117188 29.277344 113.039062 29.195312 C 112.933594 29.09375 111.609375 29.144531 110.648438 29.292969 M 103.421875 29.726562 C 102.609375 30.199219 100.753906 31.535156 99.695312 32.414062 C 98.773438 33.179688 97.984375 33.972656 97.15625 34.96875 C 96.964844 35.199219 96.734375 35.414062 96.640625 35.449219 C 95.976562 35.710938 92.464844 40.734375 92.089844 41.96875 C 92.027344 42.167969 92.054688 42.195312 92.308594 42.195312 C 92.535156 42.195312 92.636719 42.121094 92.765625 41.867188 C 92.921875 41.5625 92.929688 41.558594 92.871094 41.816406 C 92.800781 42.148438 92.828125 42.152344 93.339844 41.890625 C 93.777344 41.667969 93.90625 41.460938 94.238281 40.453125 C 94.359375 40.078125 94.480469 39.789062 94.503906 39.8125 C 94.527344 39.832031 94.484375 40.027344 94.40625 40.246094 C 94.191406 40.871094 94.128906 41.289062 94.257812 41.289062 C 94.515625 41.289062 95.429688 40.488281 95.484375 40.214844 C 95.511719 40.058594 95.613281 39.515625 95.703125 39.003906 C 95.792969 38.492188 95.882812 38.074219 95.90625 38.074219 C 95.925781 38.074219 95.914062 38.503906 95.878906 39.03125 C 95.832031 39.75 95.847656 39.984375 95.941406 39.984375 C 96.007812 39.984375 96.332031 39.75 96.65625 39.464844 C 97.332031 38.878906 97.339844 38.84375 97.101562 37.523438 C 97.023438 37.082031 96.960938 36.515625 96.964844 36.265625 L 96.972656 35.816406 L 97.058594 36.316406 C 97.195312 37.140625 97.59375 38.222656 97.773438 38.253906 C 98.011719 38.300781 99.160156 37.199219 99.160156 36.917969 C 99.160156 36.753906 98.929688 36.496094 98.355469 36.007812 C 97.914062 35.636719 97.550781 35.316406 97.550781 35.292969 C 97.550781 35.242188 98.25 35.605469 98.921875 36.011719 C 99.246094 36.207031 99.585938 36.367188 99.675781 36.367188 C 99.894531 36.367188 101.101562 35 101.035156 34.824219 C 100.972656 34.664062 99.621094 34.527344 98.828125 34.601562 C 98.441406 34.636719 98.5 34.613281 99.058594 34.511719 C 99.472656 34.433594 100.136719 34.367188 100.53125 34.363281 C 100.929688 34.359375 101.363281 34.316406 101.5 34.265625 C 101.753906 34.167969 102.671875 33.058594 102.671875 32.851562 C 102.671875 32.707031 102.152344 32.785156 101.25 33.058594 C 100.90625 33.160156 100.605469 33.230469 100.582031 33.207031 C 100.5625 33.183594 101.054688 33.003906 101.675781 32.808594 C 102.300781 32.609375 102.90625 32.382812 103.027344 32.304688 C 103.269531 32.148438 103.824219 31.261719 103.738281 31.175781 C 103.710938 31.144531 103.558594 31.167969 103.402344 31.222656 C 102.757812 31.457031 102.753906 31.441406 103.375 31.125 C 103.910156 30.847656 104.046875 30.726562 104.140625 30.4375 C 104.234375 30.148438 104.230469 30.082031 104.109375 30.054688 C 103.988281 30.027344 103.992188 30 104.136719 29.894531 C 104.324219 29.753906 104.269531 29.433594 104.054688 29.4375 C 103.984375 29.4375 103.699219 29.566406 103.421875 29.726562 M 125.4375 30.414062 C 125.148438 30.761719 123.546875 33.441406 123.546875 33.582031 C 123.546875 33.855469 123.9375 34.074219 125.375 34.601562 C 126.171875 34.894531 127.664062 35.5 128.695312 35.949219 C 129.722656 36.402344 130.652344 36.769531 130.765625 36.769531 C 131.210938 36.769531 131.460938 36.515625 132.199219 35.328125 C 133.644531 33 133.660156 32.957031 133.101562 32.566406 C 132.28125 31.996094 126.925781 30.238281 126 30.238281 C 125.726562 30.238281 125.535156 30.300781 125.4375 30.414062 M 106.078125 32.253906 C 105.386719 32.300781 104.699219 32.382812 104.558594 32.4375 C 104.304688 32.535156 103.074219 34.035156 103.074219 34.246094 C 103.074219 34.410156 103.199219 34.449219 104.441406 34.660156 C 105.097656 34.773438 106.210938 35.003906 106.917969 35.175781 C 108.445312 35.542969 108.734375 35.519531 109.164062 34.984375 C 110.089844 33.832031 110.902344 32.710938 110.902344 32.585938 C 110.902344 32.507812 110.800781 32.40625 110.675781 32.359375 C 110.320312 32.226562 107.464844 32.160156 106.078125 32.253906 M 112.957031 32.765625 C 112.726562 32.886719 110.667969 35.566406 110.617188 35.8125 C 110.558594 36.089844 110.886719 36.347656 111.589844 36.582031 C 112.175781 36.777344 114.085938 37.53125 116.011719 38.332031 C 116.957031 38.726562 117.210938 38.625 118.101562 37.496094 C 119.359375 35.910156 120.234375 34.695312 120.234375 34.539062 C 120.234375 34.3125 119.941406 34.101562 119.382812 33.921875 C 117.949219 33.46875 114.113281 32.644531 113.484375 32.65625 C 113.304688 32.660156 113.070312 32.710938 112.957031 32.765625 M 102.4375 35.046875 C 102.21875 35.132812 100.765625 36.765625 100.765625 36.925781 C 100.765625 37.109375 101.148438 37.40625 102.902344 38.566406 C 103.890625 39.222656 104.691406 39.683594 104.835938 39.683594 C 105.003906 39.683594 105.257812 39.492188 105.671875 39.054688 C 106.566406 38.101562 107.6875 36.777344 107.6875 36.671875 C 107.6875 36.328125 106.597656 35.90625 104.007812 35.253906 C 102.777344 34.941406 102.722656 34.933594 102.4375 35.046875 M 122.265625 35.335938 C 122.160156 35.433594 121.625 36.101562 121.085938 36.820312 C 120.542969 37.539062 119.902344 38.367188 119.664062 38.664062 C 119.425781 38.957031 119.230469 39.300781 119.230469 39.421875 C 119.230469 39.765625 119.664062 40.089844 121.136719 40.863281 C 121.882812 41.253906 123.171875 41.960938 124 42.433594 C 125.628906 43.371094 126.007812 43.472656 126.476562 43.105469 C 126.734375 42.902344 128.714844 40.398438 129.453125 39.339844 C 129.941406 38.640625 129.96875 38.40625 129.589844 38.046875 C 129.273438 37.742188 126.902344 36.625 124.730469 35.757812 C 123.148438 35.125 122.609375 35.03125 122.265625 35.335938 M 109.152344 37.496094 C 109.011719 37.621094 108.355469 38.335938 107.691406 39.078125 C 106.40625 40.535156 106.289062 40.777344 106.710938 41.15625 C 106.835938 41.265625 107.902344 42.046875 109.082031 42.890625 C 111.761719 44.808594 111.761719 44.808594 112.621094 43.902344 C 112.949219 43.558594 113.761719 42.65625 114.421875 41.90625 C 115.515625 40.65625 115.621094 40.503906 115.59375 40.183594 C 115.566406 39.839844 115.542969 39.820312 114.164062 39.128906 C 112.152344 38.117188 110.140625 37.273438 109.746094 37.273438 C 109.535156 37.273438 109.308594 37.359375 109.152344 37.496094 M 99.132812 38.453125 C 98.523438 39.066406 98.355469 39.296875 98.355469 39.527344 C 98.355469 39.871094 98.910156 40.914062 99.921875 42.46875 C 100.917969 44.003906 100.859375 44.003906 102.574219 42.3125 C 103.3125 41.582031 103.875 40.941406 103.875 40.835938 C 103.875 40.597656 103.234375 39.988281 101.632812 38.703125 C 100.875 38.09375 100.257812 37.671875 100.128906 37.671875 C 99.984375 37.671875 99.632812 37.949219 99.132812 38.453125 M 96.625 40.820312 C 95.992188 41.414062 95.847656 41.609375 95.847656 41.847656 C 95.847656 42.890625 96.648438 46.566406 96.957031 46.949219 C 97.191406 47.238281 97.316406 47.164062 98.699219 45.933594 C 100.128906 44.660156 100.125 44.691406 99.265625 43.125 C 98.941406 42.53125 98.503906 41.660156 98.300781 41.191406 C 97.875 40.210938 97.789062 40.082031 97.566406 40.085938 C 97.476562 40.085938 97.050781 40.417969 96.625 40.820312 M 117.558594 41.347656 C 117.394531 41.421875 113.882812 45.378906 113.773438 45.613281 C 113.558594 46.066406 113.757812 46.269531 116.398438 48.257812 C 117.820312 49.324219 119.082031 50.25 119.199219 50.316406 C 119.320312 50.378906 119.585938 50.433594 119.792969 50.433594 C 120.226562 50.433594 120.207031 50.449219 122.332031 48.070312 C 124.144531 46.042969 124.449219 45.644531 124.449219 45.320312 C 124.449219 44.921875 124.015625 44.5625 122.292969 43.527344 C 119.3125 41.738281 118.605469 41.363281 118.128906 41.328125 C 117.878906 41.308594 117.621094 41.320312 117.558594 41.347656 M 94.476562 42.542969 C 93.699219 43.136719 93.703125 43.125 93.539062 44.40625 C 93.429688 45.257812 93.421875 49.046875 93.527344 49.425781 C 93.566406 49.566406 93.664062 49.691406 93.746094 49.707031 C 93.894531 49.734375 95.453125 48.671875 95.921875 48.226562 C 96.214844 47.949219 96.210938 47.59375 95.898438 46.074219 C 95.765625 45.417969 95.605469 44.335938 95.542969 43.664062 C 95.417969 42.269531 95.371094 41.992188 95.265625 41.996094 C 95.226562 41.996094 94.871094 42.242188 94.476562 42.542969 M 103.546875 43.476562 C 102.390625 44.636719 102.070312 45.015625 102.070312 45.222656 C 102.070312 45.519531 102.628906 46.285156 104.21875 48.160156 C 104.773438 48.816406 105.3125 49.460938 105.417969 49.59375 C 105.625 49.867188 106.085938 50.132812 106.347656 50.132812 C 106.445312 50.132812 107.371094 49.285156 108.410156 48.25 C 110.285156 46.382812 110.410156 46.214844 110.238281 45.765625 C 110.203125 45.675781 109.164062 44.792969 107.929688 43.800781 C 106.046875 42.285156 105.628906 41.992188 105.355469 41.992188 C 105.066406 41.992188 104.851562 42.171875 103.546875 43.476562 M 92.660156 43.679688 C 92.199219 43.910156 92.109375 44.007812 91.941406 44.453125 C 91.316406 46.125 90.640625 50.882812 90.980469 51.226562 C 91.117188 51.363281 92.742188 50.539062 92.84375 50.277344 C 92.886719 50.167969 92.925781 49.335938 92.933594 48.421875 C 92.941406 46.96875 93.003906 46.1875 93.296875 43.925781 C 93.335938 43.632812 93.324219 43.402344 93.277344 43.40625 C 93.226562 43.410156 92.949219 43.53125 92.660156 43.679688 M 90.835938 44.796875 C 90.082031 46.761719 89.175781 50.839844 89.382812 51.371094 C 89.425781 51.492188 89.570312 51.539062 89.886719 51.539062 C 90.417969 51.539062 90.46875 51.449219 90.574219 50.332031 C 90.699219 49.003906 91.109375 46.804688 91.476562 45.46875 C 91.675781 44.757812 91.8125 44.148438 91.785156 44.121094 C 91.753906 44.09375 91.601562 44.054688 91.4375 44.039062 C 91.15625 44.007812 91.128906 44.039062 90.835938 44.796875 M 100.484375 46.4375 C 99.699219 47.011719 97.960938 48.601562 97.851562 48.847656 C 97.785156 49 97.761719 49.242188 97.800781 49.394531 C 97.921875 49.882812 98.921875 52.011719 99.65625 53.347656 C 100.359375 54.625 100.632812 54.953125 100.984375 54.953125 C 101.152344 54.953125 102.855469 53.550781 104.097656 52.386719 C 105.019531 51.523438 105 51.40625 103.734375 49.785156 C 103.304688 49.238281 102.566406 48.253906 102.09375 47.597656 C 101.355469 46.574219 101.027344 46.210938 100.835938 46.210938 C 100.8125 46.210938 100.652344 46.316406 100.484375 46.4375 M 111.753906 47.707031 C 111.589844 47.8125 110.652344 48.707031 109.671875 49.699219 C 107.976562 51.410156 107.890625 51.519531 107.890625 51.890625 C 107.890625 52.265625 107.980469 52.371094 110.167969 54.570312 C 111.421875 55.828125 112.597656 56.929688 112.78125 57.019531 C 113.394531 57.308594 113.550781 57.203125 115.867188 54.902344 C 117.933594 52.847656 118.027344 52.738281 118.023438 52.371094 C 118.023438 52.160156 117.964844 51.917969 117.898438 51.832031 C 117.652344 51.515625 112.738281 47.652344 112.5 47.585938 C 112.144531 47.492188 112.085938 47.5 111.753906 47.707031 M 95.394531 50.59375 C 93.886719 51.71875 93.941406 51.664062 93.941406 52.160156 C 93.941406 52.976562 94.800781 56.136719 95.464844 57.742188 C 95.8125 58.582031 96.011719 58.746094 96.421875 58.53125 C 96.800781 58.335938 99.179688 56.578125 99.335938 56.378906 C 99.574219 56.074219 99.453125 55.636719 98.71875 54.121094 C 98.308594 53.28125 97.761719 52.050781 97.5 51.386719 C 97 50.121094 96.820312 49.824219 96.558594 49.835938 C 96.46875 49.839844 95.945312 50.183594 95.394531 50.59375 M 91.886719 52.839844 C 91.15625 53.226562 90.972656 53.367188 90.910156 53.605469 C 90.753906 54.171875 91.195312 57.472656 91.675781 59.351562 C 91.929688 60.34375 92.144531 60.78125 92.386719 60.78125 C 92.589844 60.78125 94.472656 59.828125 94.679688 59.621094 C 94.910156 59.394531 94.882812 58.925781 94.597656 58.082031 C 94.195312 56.902344 93.765625 55.292969 93.480469 53.898438 C 93.214844 52.597656 93.113281 52.332031 92.898438 52.351562 C 92.835938 52.359375 92.382812 52.578125 91.886719 52.839844 M 104.90625 54.230469 C 104.367188 54.71875 103.5625 55.421875 103.121094 55.792969 C 101.96875 56.765625 101.902344 57.039062 102.582031 58.035156 C 103.699219 59.683594 106.085938 62.613281 106.4375 62.773438 C 106.960938 63.011719 107.144531 62.921875 108.367188 61.875 C 109.015625 61.316406 109.964844 60.476562 110.472656 60.007812 C 111.351562 59.203125 111.402344 59.132812 111.402344 58.75 C 111.402344 58.359375 111.335938 58.273438 110.023438 56.921875 C 109.261719 56.144531 108.1875 55.019531 107.636719 54.425781 C 106.707031 53.425781 106.605469 53.34375 106.257812 53.34375 C 105.929688 53.34375 105.765625 53.449219 104.90625 54.230469 M 89.167969 53.773438 C 89.011719 54.484375 89.34375 58.152344 89.726562 59.925781 C 89.960938 61.007812 90.117188 61.183594 90.84375 61.183594 C 91.476562 61.183594 91.519531 61.070312 91.292969 60.03125 C 90.9375 58.398438 90.636719 56.476562 90.53125 55.105469 C 90.46875 54.332031 90.378906 53.660156 90.332031 53.613281 C 90.285156 53.566406 90.019531 53.515625 89.742188 53.5 C 89.25 53.476562 89.230469 53.484375 89.167969 53.773438 M 99.726562 58.554688 C 99.371094 58.824219 98.628906 59.371094 98.070312 59.769531 C 97.515625 60.164062 97.035156 60.578125 97 60.683594 C 96.964844 60.789062 96.984375 61.03125 97.035156 61.226562 C 97.171875 61.714844 98.414062 63.890625 99.433594 65.425781 C 100.304688 66.734375 100.828125 67.308594 101.152344 67.308594 C 101.351562 67.308594 102.554688 66.5 104.101562 65.332031 C 105.042969 64.617188 105.078125 64.574219 105.078125 64.199219 C 105.078125 63.78125 105.070312 63.769531 103.703125 62.035156 C 103.3125 61.539062 102.554688 60.5 102.019531 59.726562 C 101.121094 58.421875 100.804688 58.082031 100.492188 58.070312 C 100.425781 58.070312 100.082031 58.289062 99.726562 58.554688 M 94.164062 62.152344 C 92.996094 62.765625 92.9375 62.8125 92.9375 63.105469 C 92.9375 63.910156 95.3125 68.59375 96.175781 69.496094 C 96.347656 69.675781 96.582031 69.820312 96.695312 69.820312 C 96.949219 69.820312 98.992188 68.828125 99.394531 68.511719 C 99.78125 68.203125 99.714844 67.933594 98.976562 66.832031 C 98.1875 65.652344 97.15625 63.902344 96.597656 62.789062 C 96.105469 61.804688 95.84375 61.476562 95.570312 61.496094 C 95.472656 61.503906 94.839844 61.800781 94.164062 62.152344 M 90.667969 63.328125 C 90.78125 63.910156 91.660156 66.046875 92.332031 67.359375 C 93.296875 69.25 93.804688 70.019531 94.203125 70.183594 C 94.765625 70.417969 95.546875 70.332031 95.546875 70.035156 C 95.546875 69.945312 95.269531 69.394531 94.933594 68.816406 C 94.171875 67.511719 93.1875 65.542969 92.695312 64.347656 C 92.488281 63.847656 92.269531 63.371094 92.203125 63.28125 C 92.121094 63.171875 91.855469 63.105469 91.34375 63.066406 L 90.609375 63.015625 L 90.667969 63.328125 M 65.863281 116.1875 C 64.230469 116.542969 62.914062 117.832031 62.480469 119.503906 C 62.394531 119.828125 62.324219 120.242188 62.324219 120.425781 L 62.324219 120.757812 L 52.289062 120.757812 L 52.289062 121.558594 L 62.28125 121.558594 L 62.402344 122.339844 C 62.644531 123.855469 63.542969 125.074219 64.914062 125.753906 L 65.675781 126.132812 L 178.195312 126.132812 L 178.953125 125.769531 C 179.820312 125.351562 180.566406 124.660156 180.996094 123.867188 C 181.300781 123.308594 181.554688 122.480469 181.554688 122.035156 L 181.554688 121.761719 L 194.402344 121.761719 L 194.402344 121.058594 L 181.585938 121.058594 L 181.527344 120.277344 C 181.398438 118.472656 180.320312 117.023438 178.570312 116.316406 L 177.992188 116.085938 L 122.242188 116.066406 C 75.550781 116.050781 66.386719 116.070312 65.863281 116.1875 M 158.132812 117.457031 C 157.519531 117.984375 157.964844 118.9375 158.765625 118.808594 C 159.191406 118.742188 159.476562 118.433594 159.476562 118.042969 C 159.476562 117.378906 158.644531 117.015625 158.132812 117.457031 M 128.4375 117.804688 C 128.292969 117.847656 128.261719 117.976562 128.261719 118.53125 L 128.261719 119.203125 L 127.535156 119.207031 C 126.988281 119.210938 126.703125 119.265625 126.386719 119.429688 C 124.871094 120.21875 124.882812 122.679688 126.40625 123.464844 C 127.375 123.964844 129.164062 123.726562 129.617188 123.035156 C 129.757812 122.816406 129.777344 122.472656 129.75 120.417969 C 129.726562 118.792969 129.683594 118.015625 129.601562 117.9375 C 129.476562 117.808594 128.71875 117.726562 128.4375 117.804688 M 72.960938 118.171875 C 72.078125 118.425781 71.660156 118.90625 71.660156 119.679688 C 71.660156 120.589844 71.964844 120.898438 73.355469 121.40625 C 74.316406 121.753906 74.507812 121.941406 74.222656 122.257812 C 73.96875 122.539062 73.214844 122.535156 72.554688 122.25 C 72.074219 122.042969 72.046875 122.042969 71.855469 122.214844 C 71.546875 122.496094 71.59375 122.996094 71.960938 123.300781 C 72.632812 123.871094 74.429688 123.886719 75.265625 123.335938 C 75.730469 123.027344 76.03125 122.351562 75.9375 121.839844 C 75.789062 121.058594 75.273438 120.652344 73.742188 120.105469 C 73.222656 119.921875 73.101562 119.644531 73.457031 119.453125 C 73.746094 119.300781 74.523438 119.328125 74.949219 119.503906 C 75.304688 119.65625 75.328125 119.652344 75.496094 119.445312 C 75.816406 119.046875 75.679688 118.558594 75.171875 118.292969 C 74.761719 118.082031 73.519531 118.015625 72.960938 118.171875 M 119.464844 118.246094 C 119.070312 118.40625 119.03125 118.640625 119.03125 120.9375 C 119.03125 123.816406 118.878906 123.609375 120.972656 123.652344 C 121.972656 123.671875 122.605469 123.644531 122.734375 123.574219 C 122.996094 123.433594 123.085938 123.085938 122.953125 122.738281 L 122.847656 122.464844 L 120.535156 122.464844 L 120.535156 121.464844 L 121.511719 121.4375 C 122.449219 121.410156 122.492188 121.398438 122.636719 121.140625 C 122.75 120.9375 122.761719 120.800781 122.6875 120.585938 C 122.589844 120.304688 122.585938 120.304688 121.5625 120.277344 L 120.535156 120.246094 L 120.535156 119.351562 L 121.546875 119.351562 C 122.746094 119.351562 122.945312 119.269531 122.945312 118.800781 C 122.945312 118.128906 122.984375 118.144531 121.253906 118.152344 C 120.390625 118.152344 119.582031 118.195312 119.464844 118.246094 M 78.484375 120.515625 C 78.484375 122.921875 78.550781 123.242188 79.105469 123.527344 C 79.527344 123.746094 80.300781 123.816406 80.734375 123.671875 C 81.140625 123.539062 81.347656 123.1875 81.246094 122.792969 C 81.199219 122.59375 81.125 122.5625 80.710938 122.5625 C 80.445312 122.5625 80.175781 122.511719 80.109375 122.445312 C 80.035156 122.371094 79.988281 122.015625 79.988281 121.539062 L 79.988281 120.757812 L 80.484375 120.757812 C 81.058594 120.757812 81.292969 120.582031 81.292969 120.15625 C 81.292969 119.613281 81.21875 119.550781 80.582031 119.550781 L 79.988281 119.550781 L 79.988281 119.171875 C 79.988281 118.535156 79.777344 118.34375 79.082031 118.34375 L 78.484375 118.34375 L 78.484375 120.515625 M 152.449219 120.515625 C 152.449219 122.921875 152.515625 123.242188 153.070312 123.527344 C 153.496094 123.746094 154.269531 123.816406 154.703125 123.671875 C 155.109375 123.539062 155.3125 123.1875 155.214844 122.792969 C 155.164062 122.59375 155.09375 122.5625 154.675781 122.5625 C 154.414062 122.5625 154.144531 122.511719 154.078125 122.445312 C 154.003906 122.371094 153.957031 122.015625 153.957031 121.539062 L 153.957031 120.757812 L 154.449219 120.757812 C 155.023438 120.757812 155.261719 120.582031 155.261719 120.15625 C 155.261719 119.613281 155.1875 119.550781 154.546875 119.550781 L 153.957031 119.550781 L 153.957031 119.171875 C 153.957031 118.535156 153.746094 118.34375 153.046875 118.34375 L 152.449219 118.34375 L 152.449219 120.515625 M 146.929688 119.113281 C 146.027344 119.285156 145.707031 119.628906 145.925781 120.195312 C 146.011719 120.425781 146.074219 120.464844 146.253906 120.410156 C 146.378906 120.371094 146.800781 120.316406 147.195312 120.285156 C 147.835938 120.234375 147.933594 120.25 148.125 120.445312 C 148.246094 120.566406 148.320312 120.703125 148.289062 120.75 C 148.261719 120.792969 147.976562 120.863281 147.660156 120.898438 C 146.078125 121.078125 145.625 121.375 145.625 122.246094 C 145.628906 123.269531 146.246094 123.714844 147.683594 123.71875 C 148.632812 123.71875 149.113281 123.59375 149.515625 123.234375 C 149.730469 123.042969 149.742188 122.957031 149.742188 121.667969 C 149.742188 120.023438 149.636719 119.722656 148.929688 119.371094 C 148.472656 119.144531 147.449219 119.011719 146.929688 119.113281 M 170.566406 119.195312 C 170.289062 119.273438 170.035156 119.34375 169.996094 119.34375 C 169.960938 119.347656 169.789062 119.464844 169.621094 119.609375 L 169.3125 119.871094 L 169.3125 121.605469 C 169.3125 122.878906 169.347656 123.371094 169.4375 123.449219 C 169.644531 123.617188 170.089844 123.695312 170.46875 123.625 L 170.816406 123.558594 L 170.816406 122.027344 C 170.816406 120.96875 170.855469 120.457031 170.9375 120.375 C 171.003906 120.308594 171.226562 120.253906 171.433594 120.253906 C 172.039062 120.253906 172.121094 120.464844 172.121094 122.027344 C 172.121094 123.289062 172.132812 123.363281 172.34375 123.511719 C 172.574219 123.675781 173.007812 123.710938 173.402344 123.605469 C 173.621094 123.546875 173.628906 123.511719 173.625 122.175781 C 173.621094 120.199219 173.460938 119.699219 172.703125 119.320312 C 172.210938 119.074219 171.1875 119.015625 170.566406 119.195312 M 85.019531 119.292969 C 83.90625 119.65625 83.347656 120.890625 83.707031 122.191406 C 83.84375 122.671875 84.316406 123.21875 84.847656 123.496094 C 85.175781 123.671875 85.425781 123.710938 86.109375 123.710938 C 87.308594 123.707031 87.941406 123.332031 87.761719 122.738281 C 87.632812 122.316406 87.542969 122.277344 87.085938 122.433594 C 86.53125 122.628906 85.585938 122.566406 85.3125 122.316406 C 85.199219 122.214844 85.109375 122.097656 85.109375 122.054688 C 85.109375 122.015625 85.65625 121.898438 86.324219 121.800781 C 87.777344 121.585938 87.960938 121.480469 87.933594 120.851562 C 87.914062 120.289062 87.539062 119.71875 87.015625 119.449219 C 86.488281 119.179688 85.582031 119.109375 85.019531 119.292969 M 91.597656 119.285156 C 91.332031 119.363281 90.992188 119.511719 90.84375 119.625 L 90.578125 119.824219 L 90.550781 122.375 C 90.523438 124.875 90.527344 124.929688 90.738281 125.101562 C 90.953125 125.277344 91.390625 125.324219 91.808594 125.214844 C 92.015625 125.15625 92.03125 125.09375 92.03125 124.414062 L 92.03125 123.671875 L 92.476562 123.734375 C 93.054688 123.8125 93.875 123.609375 94.25 123.292969 C 95.144531 122.539062 95.273438 120.765625 94.492188 119.925781 C 93.890625 119.285156 92.609375 119 91.597656 119.285156 M 109.363281 119.285156 C 109.09375 119.363281 108.757812 119.511719 108.609375 119.625 L 108.339844 119.824219 L 108.3125 122.375 C 108.285156 124.875 108.289062 124.929688 108.5 125.101562 C 108.71875 125.277344 109.15625 125.324219 109.570312 125.214844 C 109.78125 125.15625 109.796875 125.097656 109.796875 124.402344 L 109.796875 123.652344 L 110.195312 123.71875 C 110.75 123.8125 111.644531 123.605469 112.011719 123.296875 C 112.84375 122.597656 113.019531 121.027344 112.375 120.082031 C 111.878906 119.351562 110.460938 118.976562 109.363281 119.285156 M 141.003906 119.28125 C 140.335938 119.46875 139.914062 119.8125 139.644531 120.394531 C 139.1875 121.371094 139.390625 122.480469 140.140625 123.140625 C 141.339844 124.191406 143.816406 123.746094 143.074219 122.613281 C 142.9375 122.40625 142.878906 122.382812 142.660156 122.464844 C 142.152344 122.660156 141.636719 122.585938 141.289062 122.269531 C 140.996094 122.011719 140.960938 121.917969 140.960938 121.460938 C 140.960938 121 140.996094 120.90625 141.289062 120.648438 C 141.636719 120.332031 142.152344 120.261719 142.65625 120.453125 C 142.871094 120.53125 142.929688 120.515625 143.019531 120.347656 C 143.1875 120.035156 143.097656 119.640625 142.808594 119.429688 C 142.480469 119.183594 141.601562 119.113281 141.003906 119.28125 M 158.097656 119.214844 C 157.871094 119.261719 157.871094 119.273438 157.871094 121.222656 C 157.871094 122.351562 157.914062 123.261719 157.972656 123.371094 C 158.089844 123.59375 158.628906 123.71875 159.066406 123.621094 L 159.375 123.554688 L 159.375 121.515625 C 159.375 119.847656 159.347656 119.453125 159.230469 119.351562 C 159.066406 119.21875 158.441406 119.140625 158.097656 119.214844 M 163.414062 119.335938 C 162.75 119.566406 162.519531 119.773438 162.222656 120.40625 C 161.78125 121.347656 162.023438 122.6875 162.738281 123.25 C 163.058594 123.503906 163.886719 123.769531 164.34375 123.769531 C 164.796875 123.769531 165.628906 123.503906 165.9375 123.257812 C 166.855469 122.535156 166.925781 120.808594 166.074219 119.882812 C 165.425781 119.183594 164.449219 118.980469 163.414062 119.335938 M 101.183594 120.949219 C 101.21875 122.792969 101.257812 122.925781 101.875 123.386719 C 102.476562 123.839844 104.003906 123.851562 104.921875 123.414062 C 105.425781 123.175781 105.507812 122.8125 105.464844 121.042969 C 105.425781 119.289062 105.402344 119.25 104.566406 119.25 L 103.980469 119.25 L 103.925781 122.515625 L 103.488281 122.546875 C 102.742188 122.597656 102.671875 122.457031 102.671875 120.964844 C 102.671875 119.351562 102.617188 119.25 101.753906 119.25 L 101.152344 119.25 L 101.183594 120.949219 M 132.617188 119.390625 C 132.589844 119.46875 132.578125 120.234375 132.597656 121.089844 C 132.625 122.488281 132.652344 122.679688 132.839844 122.933594 C 133.46875 123.785156 135.09375 124.003906 136.347656 123.410156 C 136.828125 123.179688 136.921875 122.761719 136.878906 120.980469 C 136.839844 119.300781 136.808594 119.25 135.925781 119.25 L 135.394531 119.25 L 135.339844 122.515625 L 134.902344 122.546875 C 134.15625 122.597656 134.085938 122.457031 134.085938 120.964844 C 134.085938 119.375 134.023438 119.25 133.222656 119.25 C 132.84375 119.25 132.65625 119.292969 132.617188 119.390625 M 85.253906 120.5 C 84.910156 120.84375 84.925781 121.089844 85.285156 121.019531 C 85.433594 120.988281 85.773438 120.933594 86.035156 120.898438 C 86.546875 120.828125 86.628906 120.691406 86.328125 120.421875 C 86.054688 120.171875 85.542969 120.210938 85.253906 120.5 M 92.074219 120.488281 C 92.046875 120.5625 92.039062 121.046875 92.054688 121.566406 L 92.082031 122.515625 L 92.507812 122.546875 C 92.851562 122.570312 92.980469 122.527344 93.1875 122.324219 C 93.398438 122.109375 93.4375 121.980469 93.4375 121.460938 C 93.4375 120.945312 93.398438 120.808594 93.191406 120.601562 C 92.914062 120.324219 92.167969 120.246094 92.074219 120.488281 M 109.839844 120.488281 C 109.8125 120.5625 109.800781 121.046875 109.816406 121.566406 L 109.847656 122.515625 L 110.273438 122.546875 C 110.617188 122.570312 110.746094 122.527344 110.949219 122.324219 C 111.164062 122.109375 111.203125 121.980469 111.203125 121.460938 C 111.203125 120.945312 111.164062 120.808594 110.957031 120.601562 C 110.675781 120.324219 109.933594 120.246094 109.839844 120.488281 M 127.097656 120.589844 C 126.839844 120.8125 126.808594 120.902344 126.808594 121.441406 C 126.808594 122.199219 127.085938 122.566406 127.652344 122.5625 C 128.246094 122.558594 128.273438 122.507812 128.242188 121.402344 L 128.214844 120.40625 L 127.796875 120.375 C 127.472656 120.351562 127.320312 120.398438 127.097656 120.589844 M 163.785156 120.613281 C 163.585938 120.824219 163.542969 120.972656 163.542969 121.460938 C 163.542969 122.183594 163.824219 122.5625 164.355469 122.5625 C 164.84375 122.5625 165.097656 122.1875 165.097656 121.460938 C 165.097656 121.027344 165.042969 120.816406 164.890625 120.617188 C 164.609375 120.261719 164.117188 120.257812 163.785156 120.613281 M 147.734375 121.859375 C 147.191406 121.929688 147.03125 122.015625 147.03125 122.25 C 147.03125 122.523438 147.242188 122.664062 147.644531 122.664062 C 148.214844 122.664062 148.335938 122.585938 148.335938 122.207031 C 148.335938 121.800781 148.304688 121.785156 147.734375 121.859375 "/>
</g>
</svg>
